<?xml version="1.0" encoding="UTF-8"?><svg id="Layer_2" xmlns="http://www.w3.org/2000/svg" viewBox="0 0 379.41 395.9"><g id="web_icons"><path d="M282.72,354.57c0,12.62,10.2,22.83,22.82,22.83,12.59,0,22.8-10.21,22.8-22.83s-10.21-22.8-22.8-22.8c-12.62,0-22.82,10.21-22.82,22.8ZM297.9,354.57c0-4.2,3.42-7.62,7.63-7.62,4.2,0,7.62,3.42,7.62,7.62,0,4.22-3.42,7.65-7.62,7.65-4.21,0-7.63-3.43-7.63-7.65Z" style="fill:#343433; stroke:#0a3641; stroke-linejoin:round; stroke-width:37px;"/><path d="M112.4,354.57c0,12.62,10.21,22.83,22.82,22.83s22.82-10.21,22.82-22.83c0-12.59-10.2-22.8-22.82-22.8-12.6,0-22.82,10.21-22.82,22.8ZM127.58,354.57c0-4.2,3.42-7.62,7.64-7.62,4.21,0,7.63,3.42,7.63,7.62,0,4.22-3.42,7.65-7.63,7.65-4.21,0-7.64-3.43-7.64-7.65Z" style="fill:#343433; stroke:#0a3641; stroke-linejoin:round; stroke-width:37px;"/><path d="M18.5,18.5v15.18s52.09,0,52.09,0l43.6,243.35h236.82s0-15.18,0-15.18H126.89s-6.86-38.28-6.86-38.28l225.14-25.15,15.74-140.42L87.27,40.72l-3.98-22.22H18.5ZM117.35,208.6l-27.32-152.49,254.02,16.04-12.61,112.53-214.08,23.92Z" style="fill:#343433; stroke:#0a3641; stroke-linejoin:round; stroke-width:37px;"/></g></svg>