<?xml version="1.0" encoding="UTF-8"?><svg id="Layer_2" xmlns="http://www.w3.org/2000/svg" viewBox="0 0 348.9 321.77"><g id="web_icons"><path d="M326.78,84.78c-12.75-43.52-55.67-66.28-91.48-66.28-22.3,0-43.8,7.83-60.83,21.83-17.04-14.01-38.54-21.83-60.85-21.83-35.8,0-78.74,22.83-91.52,66.46-10.79,36.85-6.35,113.13,144.72,209.94l7.65,4.9,7.65-4.9c151.06-96.81,155.48-173.19,144.67-210.11ZM174.47,282.96C-48.65,139.99,40.41,32.68,113.62,32.68c24.19,0,45.91,10.54,60.85,27.25,14.94-16.71,36.66-27.25,60.83-27.25,73.99,0,161.47,107.82-60.83,250.28Z" style="fill:none; stroke:#0a3641; stroke-miterlimit:10; stroke-width:37px;"/></g></svg>