<?xml version="1.0" encoding="UTF-8"?><svg id="Layer_2" xmlns="http://www.w3.org/2000/svg" viewBox="0 0 1559.38 247.97"><g id="Layer_1-2"><path d="M0,245.91V2.06h56.17c41.1,0,61.65,23.86,61.65,71.58,0,14.38-2.23,26.6-6.68,36.65-4.45,10.05-12.28,18.15-23.46,24.32l37.67,111.31h-36.99l-32.54-104.12h-20.89v104.12H0ZM34.93,34.94v76.03h19.87c6.16,0,11.07-.86,14.73-2.57,3.65-1.71,6.51-4.16,8.56-7.36,1.83-3.19,3.08-7.13,3.77-11.82.69-4.68,1.03-10.1,1.03-16.27s-.34-11.59-1.03-16.27c-.69-4.68-2.06-8.73-4.11-12.16-4.34-6.39-12.56-9.59-24.66-9.59h-18.15Z" style="fill:#053541;"/><path d="M181.52,245.91L235.98,2.06h29.11l54.46,243.86h-34.93l-10.27-52.4h-47.61l-10.27,52.4h-34.93ZM267.83,160.63l-17.12-88.36h-.69l-17.12,88.36h34.94Z" style="fill:#053541;"/><path d="M389.07,245.91V2.06h34.94v243.86h-34.94Z" style="fill:#053541;"/><path d="M507.92,245.91V2.06h33.56l52.74,146.93h.69V2.06h34.93v243.86h-32.88l-53.43-146.59h-.68v146.59h-34.94Z" style="fill:#053541;"/><path d="M745.27,245.91v-103.09L697.32,2.06h36.99l28.08,96.93h.69l28.08-96.93h36.99l-47.95,140.77v103.09h-34.94Z" style="fill:#053541;"/><path d="M896.99,245.91V2.06h51.72c20.09,0,35.33,5.48,45.72,16.44,10.39,10.96,15.58,26.49,15.58,46.58v114.05c0,22.83-5.54,39.68-16.61,50.52-11.08,10.85-27,16.27-47.78,16.27h-48.63ZM931.92,34.94v178.1h16.1c9.82,0,16.78-2.45,20.89-7.36,4.11-4.91,6.17-12.61,6.17-23.12v-117.48c0-9.59-1.94-17.01-5.82-22.26-3.89-5.25-10.96-7.88-21.24-7.88h-16.1Z" style="fill:#053541;"/><path d="M1074.4,245.91L1128.86,2.06h29.11l54.46,243.86h-34.94l-10.27-52.4h-47.61l-10.27,52.4h-34.94ZM1160.71,160.63l-17.12-88.36h-.68l-17.12,88.36h34.93Z" style="fill:#053541;"/><path d="M1294.63,245.91v-103.09L1246.68,2.06h36.99l28.08,96.93h.68l28.08-96.93h36.99l-47.95,140.77v103.09h-34.93Z" style="fill:#053541;"/><path d="M1559.38,72.27h-34.93v-7.88c0-7.99-1.88-14.9-5.65-20.72-3.77-5.82-10.1-8.73-19.01-8.73-4.79,0-8.68.92-11.64,2.74-2.97,1.83-5.37,4.11-7.19,6.85-1.83,2.97-3.08,6.34-3.77,10.1s-1.03,7.71-1.03,11.82c0,4.79.17,8.79.51,11.99.34,3.2,1.2,6.05,2.57,8.56,1.37,2.52,3.37,4.68,5.99,6.51,2.62,1.83,6.22,3.66,10.79,5.48l26.71,10.62c7.76,2.97,14.04,6.45,18.84,10.45,4.79,4,8.56,8.62,11.3,13.87,2.51,5.48,4.22,11.7,5.14,18.67.91,6.97,1.37,14.9,1.37,23.8,0,10.28-1.03,19.81-3.08,28.6-2.05,8.79-5.37,16.27-9.93,22.43-4.79,6.4-11.08,11.42-18.84,15.07-7.77,3.65-17.24,5.48-28.43,5.48-8.45,0-16.33-1.49-23.63-4.45-7.31-2.96-13.59-7.08-18.84-12.33-5.25-5.25-9.42-11.36-12.5-18.32-3.08-6.96-4.62-14.56-4.62-22.78v-13.01h34.93v10.96c0,6.39,1.88,12.16,5.65,17.3s10.1,7.71,19.01,7.71c5.93,0,10.56-.86,13.87-2.57,3.31-1.71,5.88-4.16,7.71-7.36,1.83-3.19,2.91-7.02,3.25-11.47.34-4.45.51-9.42.51-14.9,0-6.39-.23-11.64-.68-15.75-.46-4.11-1.37-7.42-2.74-9.93-1.6-2.51-3.71-4.56-6.34-6.17-2.63-1.59-6.11-3.31-10.45-5.14l-25-10.27c-15.07-6.17-25.17-14.33-30.31-24.49-5.14-10.16-7.71-22.89-7.71-38.19,0-9.13,1.25-17.81,3.77-26.03,2.51-8.22,6.28-15.29,11.3-21.23,4.79-5.93,10.9-10.67,18.32-14.21,7.42-3.54,16.27-5.31,26.54-5.31,8.67,0,16.61,1.6,23.8,4.79,7.19,3.2,13.41,7.42,18.67,12.67,10.5,10.96,15.75,23.52,15.75,37.67v17.12Z" style="fill:#053541;"/></g></svg>