<?xml version="1.0" encoding="UTF-8"?><svg id="Layer_1" xmlns="http://www.w3.org/2000/svg" viewBox="0 0 921.6 921.6"><path d="M460.8,0c-125.15,0-140.84.53-189.99,2.77-49.05,2.24-82.54,10.03-111.86,21.42-30.3,11.78-56,27.53-81.62,53.15-25.62,25.62-41.37,51.31-53.15,81.62-11.39,29.31-19.18,62.81-21.42,111.85-2.24,49.15-2.77,64.84-2.77,189.99s.53,140.84,2.77,189.99c2.24,49.05,10.03,82.54,21.42,111.85,11.78,30.3,27.53,56,53.15,81.62,25.62,25.62,51.31,41.37,81.62,53.15,29.31,11.39,62.81,19.18,111.86,21.42,49.15,2.24,64.84,2.77,189.99,2.77s140.84-.53,189.99-2.77c49.05-2.24,82.54-10.03,111.85-21.42,30.3-11.78,56-27.53,81.62-53.15,25.62-25.62,41.37-51.32,53.15-81.62,11.39-29.31,19.18-62.81,21.42-111.85,2.24-49.15,2.77-64.84,2.77-189.99s-.53-140.84-2.77-189.99c-2.24-49.05-10.03-82.54-21.42-111.85-11.78-30.3-27.53-56-53.15-81.62-25.62-25.62-51.32-41.37-81.62-53.15-29.31-11.39-62.81-19.18-111.85-21.42-49.15-2.24-64.84-2.77-189.99-2.77ZM460.8,83.03c123.04,0,137.61.47,186.2,2.69,44.93,2.05,69.33,9.56,85.56,15.87,21.51,8.36,36.86,18.35,52.98,34.47,16.13,16.12,26.11,31.48,34.47,52.98,6.31,16.24,13.82,40.64,15.87,85.56,2.22,48.59,2.69,63.16,2.69,186.2s-.47,137.61-2.69,186.2c-2.05,44.93-9.56,69.33-15.87,85.56-8.36,21.51-18.34,36.86-34.47,52.98-16.12,16.13-31.47,26.11-52.98,34.47-16.24,6.31-40.64,13.82-85.56,15.87-48.58,2.22-63.15,2.69-186.2,2.69s-137.62-.47-186.2-2.69c-44.93-2.05-69.33-9.56-85.56-15.87-21.51-8.36-36.86-18.34-52.98-34.47-16.12-16.12-26.11-31.47-34.47-52.98-6.31-16.24-13.82-40.64-15.87-85.56-2.22-48.59-2.69-63.16-2.69-186.2s.47-137.61,2.69-186.2c2.05-44.93,9.56-69.33,15.87-85.56,8.36-21.51,18.34-36.86,34.47-52.98,16.13-16.12,31.48-26.11,52.98-34.47,16.24-6.31,40.64-13.82,85.56-15.87,48.59-2.22,63.16-2.69,186.2-2.69Z" style="fill:#fff;"/><path d="M460.8,614.4c-84.83,0-153.6-68.77-153.6-153.6s68.77-153.6,153.6-153.6,153.6,68.77,153.6,153.6-68.77,153.6-153.6,153.6ZM460.8,224.17c-130.69,0-236.63,105.94-236.63,236.63s105.94,236.63,236.63,236.63,236.63-105.94,236.63-236.63-105.94-236.63-236.63-236.63Z" style="fill:#fff;"/><path d="M762.07,214.82c0,30.54-24.76,55.29-55.3,55.29s-55.29-24.76-55.29-55.29,24.76-55.29,55.29-55.29,55.3,24.76,55.3,55.29Z" style="fill:#fff;"/></svg>