<?xml version="1.0" encoding="UTF-8"?><svg id="Layer_2" xmlns="http://www.w3.org/2000/svg" viewBox="0 0 403.98 399.22"><g id="web_icons"><path d="M392.38,332.56l-103.45-102.26c34.64-58.65,26.68-135.13-24.18-185.42-60.59-59.84-158.73-59.84-219.31,0-60.59,59.86-60.59,156.87,0,216.74,50.89,50.3,128.24,58.15,187.62,23.92l103.45,102.23c15.43,15.27,40.47,15.27,55.87,0,15.46-15.23,15.46-39.98,0-55.2ZM223.73,221.08c-37.9,37.47-99.38,37.47-137.29,0-37.9-37.46-37.9-98.17,0-135.65,37.92-37.47,99.4-37.47,137.29,0,37.92,37.49,37.92,98.2,0,135.65Z" style="fill:#0a3641;"/></g></svg>