<?xml version="1.0" encoding="UTF-8"?><svg id="Layer_2" xmlns="http://www.w3.org/2000/svg" viewBox="0 0 51.02 51.02"><g id="web_icons"><path d="M26.78,10.46c7.62,0,13.79,6.18,13.79,13.79" style="fill:#fff;"/><path d="M26.78,1.32c12.66,0,22.92,10.26,22.92,22.92" style="fill:#fff;"/><path d="M3.44,3.15h0C-3.64,10.22.57,25.91,12.84,38.18c12.27,12.27,27.95,16.48,35.03,9.41,2.14-2.15,3.12-7.02,3.12-7.02.16-.8-.3-1.7-1.04-1.99l-12.85-5.13c-.73-.29-1.81-.05-2.4.55l-3.72,3.72c-.71.71-1.74.89-2.54.52-.06-.03-.13-.06-.19-.1-.03-.02-.06-.03-.08-.05-2.83-1.54-5.82-3.79-8.64-6.6-2.82-2.82-5.06-5.81-6.6-8.63-.01-.03-.03-.05-.04-.08-.04-.07-.07-.13-.1-.19-.37-.81-.19-1.84.52-2.55l3.73-3.73c.59-.59.84-1.67.54-2.41L12.44,1.07c-.29-.73-1.19-1.2-1.99-1.04,0,0-4.87.97-7.02,3.12Z" style="fill:#fff;"/></g></svg>